<?xml version="1.0" encoding="utf-8"?>
<!-- Generator: Adobe Illustrator 18.1.0, SVG Export Plug-In . SVG Version: 6.00 Build 0)  -->
<svg version="1.1" id="Layer_1" xmlns="http://www.w3.org/2000/svg" xmlns:xlink="http://www.w3.org/1999/xlink" x="0px" y="0px"
	 viewBox="0 0 231 38" enable-background="new 0 0 231 38" xml:space="preserve">
<g>
	<g>
		<linearGradient id="SVGID_1_" gradientUnits="userSpaceOnUse" x1="115.3347" y1="35.7783" x2="115.3347" y2="2.1123">
			<stop  offset="0" style="stop-color:#EB8B23"/>
			<stop  offset="9.723091e-02" style="stop-color:#EE952A"/>
			<stop  offset="0.3275" style="stop-color:#F4AB3C"/>
			<stop  offset="0.5567" style="stop-color:#FABC4B"/>
			<stop  offset="0.7823" style="stop-color:#FEC655"/>
			<stop  offset="1" style="stop-color:#FFC958"/>
		</linearGradient>
		<path fill="url(#SVGID_1_)" d="M5.8,35.8c-2.2,0-3.9-1.8-3.9-3.9V6.1c0-2.2,1.8-3.9,3.9-3.9h219.1c2.2,0,4,1.8,4,3.9v25.8
			c0,2.2-1.8,3.9-4,3.9H5.8z"/>
		<path fill="#EEA33A" d="M224.9,2.8c1.8,0,3.3,1.5,3.3,3.3v25.8c0,1.8-1.5,3.3-3.3,3.3H5.8c-1.8,0-3.3-1.5-3.3-3.3V6.1
			c0-1.8,1.5-3.3,3.3-3.3H224.9 M224.9,1.4H5.8c-2.5,0-4.6,2.1-4.6,4.6v25.8c0,2.5,2.1,4.6,4.6,4.6h219.1c2.6,0,4.6-2.1,4.6-4.6V6.1
			C229.5,3.5,227.4,1.4,224.9,1.4L224.9,1.4z"/>
	</g>
	<g>
		<g>
			<path fill="#EB8B23" d="M57.4,25.7h-2.5V13.8h4.6c1.7,0,2.8,1.1,2.8,3.1c0,1.5-0.6,2.7-2.2,2.9v0c0.5,0.1,2.2,0.2,2.2,2.3
				c0,0.8,0,3,0.3,3.5H60c-0.3-0.7-0.3-1.5-0.3-2.3c0-1.4,0.1-2.6-1.8-2.6h-0.6V25.7z M57.4,19h1.1c1,0,1.3-1,1.3-1.8
				c0-1.1-0.5-1.6-1.3-1.6h-1.1V19z"/>
			<path fill="#EB8B23" d="M64.1,25.7V13.8h6.5v1.8h-4v2.9h3.7v1.8h-3.7v3.5h4.1v1.8H64.1z"/>
			<path fill="#EB8B23" d="M81.3,25.7h-3.5c-0.2,0-0.5,0-0.7,0c-0.2,0-0.5,0.1-0.7,0.1c-3.7,0-4.1-1.9-4.1-6.1c0-3.2,0-6.2,4.1-6.2
				c4.1,0,4.1,3,4.1,6.2c0,2.6-0.5,3.7-1.5,4.5l0,0c0.4-0.1,1-0.4,1.3-0.4h1V25.7z M77.9,19.8c0-3.1-0.2-4.4-1.6-4.4
				c-1.4,0-1.6,1.3-1.6,4.4c0,3,0.2,4.3,1.6,4.3C77.7,24.1,77.9,22.8,77.9,19.8z"/>
			<path fill="#EB8B23" d="M90.5,13.8v8.5c0,1.8-1,3.7-4,3.7c-2.7,0-4.1-1.4-4.1-3.7v-8.5h2.5v8.3c0,1.5,0.6,2,1.5,2
				c1.1,0,1.6-0.7,1.6-2v-8.3H90.5z"/>
			<path fill="#EB8B23" d="M92.5,25.7V13.8H99v1.8h-4v2.9h3.7v1.8H95v3.5h4.1v1.8H92.5z"/>
			<path fill="#EB8B23" d="M104,25.9c-3.1,0-3.7-1.8-3.5-3.9h2.5c0,1.1,0.1,2.1,1.4,2.1c0.8,0,1.3-0.5,1.3-1.4c0-2.1-5-2.3-5-5.8
				c0-1.9,0.9-3.4,3.9-3.4c2.4,0,3.6,1.1,3.5,3.6h-2.4c0-0.9-0.1-1.8-1.2-1.8c-0.8,0-1.3,0.4-1.3,1.3c0,2.3,5,2.1,5,5.8
				C108.2,25.6,105.9,25.9,104,25.9z"/>
			<path fill="#EB8B23" d="M117,13.8v2h-2.8v9.9h-2.5v-9.9H109v-2H117z"/>
			<path fill="#EB8B23" d="M121,25.7l3.3-11.9h3.3l3.2,11.9h-2.6l-0.7-2.6h-3.4l-0.7,2.6H121z M125.8,16.1L125.8,16.1l-1.2,5.2h2.4
				L125.8,16.1z"/>
			<path fill="#EB8B23" d="M135.7,13.8h4.2c3.3,0,3.9,2.2,3.9,5.9c0,1.8,0.3,6-4,6h-4.1V13.8z M138.2,23.9h1.2
				c1.5,0,1.8-1.1,1.8-4.1c0-2.2,0-4.1-1.7-4.1h-1.3V23.9z"/>
			<path fill="#EB8B23" d="M145.7,25.7V13.8h6.5v1.8h-4v2.9h3.7v1.8h-3.7v3.5h4.1v1.8H145.7z"/>
			<path fill="#EB8B23" d="M153.9,25.7V13.8h4l1.9,8.1h0l2-8.1h3.9v11.9h-2.4v-9.2h0l-2.3,9.2h-2.4l-2.2-9.2h0v9.2H153.9z"/>
			<path fill="#EB8B23" d="M167.6,19.8c0-3.2,0-6.2,4.1-6.2c4.1,0,4.1,3,4.1,6.2c0,3.1,0,6.2-4.1,6.2
				C167.6,25.9,167.6,22.9,167.6,19.8z M173.3,19.8c0-3.1-0.2-4.4-1.6-4.4c-1.4,0-1.6,1.3-1.6,4.4s0.2,4.4,1.6,4.4
				C173.1,24.2,173.3,22.8,173.3,19.8z"/>
		</g>
		<g>
			<path fill="#FFFFFF" d="M57.4,24.1h-2.5V12.1h4.6c1.7,0,2.8,1.1,2.8,3.1c0,1.5-0.6,2.7-2.2,2.9v0c0.5,0.1,2.2,0.2,2.2,2.3
				c0,0.8,0,3,0.3,3.5H60c-0.3-0.7-0.3-1.5-0.3-2.3c0-1.4,0.1-2.6-1.8-2.6h-0.6V24.1z M57.4,17.3h1.1c1,0,1.3-1,1.3-1.8
				c0-1.1-0.5-1.6-1.3-1.6h-1.1V17.3z"/>
			<path fill="#FFFFFF" d="M64.1,24.1V12.1h6.5V14h-4v2.9h3.7v1.8h-3.7v3.5h4.1v1.8H64.1z"/>
			<path fill="#FFFFFF" d="M81.3,24.1h-3.5c-0.2,0-0.5,0-0.7,0c-0.2,0-0.5,0.1-0.7,0.1c-3.7,0-4.1-1.9-4.1-6.1c0-3.2,0-6.2,4.1-6.2
				c4.1,0,4.1,3,4.1,6.2c0,2.6-0.5,3.7-1.5,4.5l0,0c0.4-0.1,1-0.4,1.3-0.4h1V24.1z M77.9,18.1c0-3.1-0.2-4.4-1.6-4.4
				c-1.4,0-1.6,1.3-1.6,4.4c0,3,0.2,4.3,1.6,4.3C77.7,22.4,77.9,21.1,77.9,18.1z"/>
			<path fill="#FFFFFF" d="M90.5,12.1v8.5c0,1.8-1,3.7-4,3.7c-2.7,0-4.1-1.4-4.1-3.7v-8.5h2.5v8.3c0,1.5,0.6,2,1.5,2
				c1.1,0,1.6-0.7,1.6-2v-8.3H90.5z"/>
			<path fill="#FFFFFF" d="M92.5,24.1V12.1H99V14h-4v2.9h3.7v1.8H95v3.5h4.1v1.8H92.5z"/>
			<path fill="#FFFFFF" d="M104,24.3c-3.1,0-3.7-1.8-3.5-3.9h2.5c0,1.1,0.1,2.1,1.4,2.1c0.8,0,1.3-0.5,1.3-1.4c0-2.1-5-2.3-5-5.8
				c0-1.9,0.9-3.4,3.9-3.4c2.4,0,3.6,1.1,3.5,3.6h-2.4c0-0.9-0.1-1.8-1.2-1.8c-0.8,0-1.3,0.4-1.3,1.3c0,2.3,5,2.1,5,5.8
				C108.2,23.9,105.9,24.3,104,24.3z"/>
			<path fill="#FFFFFF" d="M117,12.1v2h-2.8v9.9h-2.5v-9.9H109v-2H117z"/>
			<path fill="#FFFFFF" d="M121,24.1l3.3-11.9h3.3l3.2,11.9h-2.6l-0.7-2.6h-3.4l-0.7,2.6H121z M125.8,14.4L125.8,14.4l-1.2,5.2h2.4
				L125.8,14.4z"/>
			<path fill="#FFFFFF" d="M135.7,12.1h4.2c3.3,0,3.9,2.2,3.9,5.9c0,1.8,0.3,6-4,6h-4.1V12.1z M138.2,22.2h1.2
				c1.5,0,1.8-1.1,1.8-4.1c0-2.2,0-4.1-1.7-4.1h-1.3V22.2z"/>
			<path fill="#FFFFFF" d="M145.7,24.1V12.1h6.5V14h-4v2.9h3.7v1.8h-3.7v3.5h4.1v1.8H145.7z"/>
			<path fill="#FFFFFF" d="M153.9,24.1V12.1h4l1.9,8.1h0l2-8.1h3.9v11.9h-2.4v-9.2h0l-2.3,9.2h-2.4l-2.2-9.2h0v9.2H153.9z"/>
			<path fill="#FFFFFF" d="M167.6,18.1c0-3.2,0-6.2,4.1-6.2c4.1,0,4.1,3,4.1,6.2c0,3.1,0,6.2-4.1,6.2
				C167.6,24.3,167.6,21.2,167.6,18.1z M173.3,18.1c0-3.1-0.2-4.4-1.6-4.4c-1.4,0-1.6,1.3-1.6,4.4s0.2,4.4,1.6,4.4
				C173.1,22.5,173.3,21.2,173.3,18.1z"/>
		</g>
	</g>
</g>
</svg>
