<?xml version="1.0" encoding="utf-8"?>
<!-- Generator: Adobe Illustrator 18.1.0, SVG Export Plug-In . SVG Version: 6.00 Build 0)  -->
<svg version="1.1" id="Layer_1" xmlns="http://www.w3.org/2000/svg" xmlns:xlink="http://www.w3.org/1999/xlink" x="0px" y="0px"
	 viewBox="0 0 62 66" enable-background="new 0 0 62 66" xml:space="preserve">
<g>
	<path opacity="0.2" fill="#333333" d="M6,64.6c19-0.5,37-5.9,55-5.9c0-16.6,0-36.4,0-53c-18,0-36,5.5-55,5.9V64.6z"/>
	<g>
		<g>
			<path fill="#FFFFFF" stroke="#010101" stroke-miterlimit="10" d="M59.5,2.5c-19,0-38.3,6-58,6c0,16.6,0,37.4,0,54
				c19.7,0,39-6,58-6C59.5,40,59.5,19.2,59.5,2.5z"/>
			<g>
				<g>
					<g>
						<g id="XMrHip_4_">
							<g>
								<path fill-rule="evenodd" clip-rule="evenodd" fill="#999999" d="M11.5,50.9c-0.2,0.5-0.3,0.9-0.6,1.3
									c-0.1,0.2-0.3,0.3-0.4,0.4c-0.3,0.1-0.5,0-0.6-0.3c-0.2-0.4-0.4-0.9-0.5-1.3c-0.1,0-0.1,0-0.2,0c0,0.2,0,0.3,0,0.5
									c0,0.9,0,1.8,0,2.7c0,0.3-0.1,0.5-0.5,0.5c-0.3,0-0.6,0-0.9,0c-0.3,0-0.4-0.1-0.4-0.4c0-2.7,0-5.4,0-8.1
									c0-0.3,0.1-0.4,0.4-0.4c1.3-0.1,1.3-0.1,1.7,1.2c0.2,0.8,0.5,1.6,0.7,2.4c0,0.1,0.1,0.3,0.3,0.4c0.1-0.1,0.1-0.3,0.2-0.4
									c0.3-1.1,0.6-2.1,0.9-3.2c0.1-0.4,0.3-0.5,0.6-0.5c1.3-0.1,1.3-0.1,1.3,1.2c0,2.3,0,4.6,0,7c0,0.7,0,0.7-0.6,0.7
									c-1.1,0.1-1.1,0.1-1.1-1.1c0-0.7,0-1.4,0-2c0-0.2,0-0.3,0-0.5C11.6,50.9,11.6,50.9,11.5,50.9z"/>
							</g>
							<g>
								<path fill-rule="evenodd" clip-rule="evenodd" fill="#999999" d="M22.4,49.6c0,0.9,0,1.8,0,2.7c0,1.1,0,1.1-1.1,1.2
									c-0.7,0.1-0.7,0.1-0.7-0.6c0-2.5,0-5.1,0-7.6c0-0.4,0.1-0.6,0.5-0.6c1-0.1,0.8-0.2,1.1,0.6c0.4,0.8,0.7,1.7,1.1,2.5
									c0.1,0.1,0.2,0.3,0.2,0.4c0,0,0.1,0,0.1,0c0-0.2,0-0.3,0-0.5c0-0.9,0-1.9,0-2.8c0-0.4,0.1-0.5,0.5-0.6
									c1.3-0.2,1.3-0.2,1.3,1.1c0,2.4,0,4.7,0,7.1c0,0.4-0.1,0.6-0.6,0.6c-0.9,0.1-0.7,0.2-1.1-0.6c-0.4-0.8-0.7-1.7-1.1-2.5
									c-0.1-0.1-0.2-0.3-0.2-0.4C22.5,49.6,22.5,49.6,22.4,49.6z"/>
							</g>
							<g>
								<path fill-rule="evenodd" clip-rule="evenodd" fill="#999999" d="M19.4,50c0,1.1,0,2.2,0,3.4c0,0.4-0.1,0.5-0.5,0.6
									c-1.3,0.2-1.3,0.2-1.3-1.1c0-0.4-0.1-0.6-0.5-0.5c-0.4,0.1-0.6,0.2-0.6,0.6c0,1.3,0,1.3-1.3,1.4c-0.3,0-0.5-0.1-0.5-0.4
									c0-2.3,0-4.5,0-6.8c0-1.2,0.5-1.7,1.7-1.8c0.5-0.1,0.9-0.1,1.4-0.2c1-0.1,1.5,0.3,1.5,1.3C19.4,47.6,19.4,48.8,19.4,50
									C19.4,50,19.4,50,19.4,50z M17.6,48.7c0-0.5,0-1.1,0-1.6c0-0.4-0.2-0.4-0.5-0.3c-0.3,0.1-0.6-0.1-0.6,0.4c0,1.1,0,2.2,0,3.3
									c0,0.5,0.4,0.3,0.6,0.3c0.3,0,0.5-0.1,0.5-0.4C17.6,49.8,17.6,49.2,17.6,48.7z"/>
							</g>
							<g>
								<path fill-rule="evenodd" clip-rule="evenodd" fill="#999999" d="M50.3,45c0-0.9,0-1.8,0-2.7c0-1.2,0.5-1.8,1.8-1.8
									c0.5,0,0.9,0,1.4,0c1.1,0,1.6,0.5,1.6,1.6c0,1.2,0,2.3,0,3.5c0,0.7,0,1.4,0,2.1c0,1.2-0.5,1.6-1.7,1.7c-0.5,0-1,0-1.4,0.1
									c-1.1,0-1.6-0.4-1.6-1.5c0,0,0-0.1,0-0.1C50.3,46.8,50.3,45.9,50.3,45z M53.3,41.9c-0.3,0-0.4,0-0.6,0
									c-0.5,0-0.6,0.1-0.6,0.6c0,1.6,0,3.1,0,4.7c0,0.5,0.2,0.6,0.6,0.5c0.4,0,0.7,0,0.6-0.6c0-1.2,0-2.3,0-3.5
									C53.3,43.1,53.3,42.5,53.3,41.9z"/>
							</g>
							<g>
								<path fill-rule="evenodd" clip-rule="evenodd" fill="#999999" d="M41.6,48.8c0.3,0,0.6,0,0.8-0.1c0.1,0,0.3-0.2,0.3-0.4
									c0-0.5,0-0.9,0-1.4c0-0.1-0.2-0.3-0.4-0.3c-0.3,0-0.6,0.1-0.9,0.1c-0.9,0.1-1.6-0.4-1.6-1.3c0-0.8,0-1.5,0-2.3
									c0-0.8,0.5-1.4,1.3-1.5c0.7-0.1,1.4-0.2,2-0.3c0.8,0,1.2,0.3,1.3,1.1c0,0,0,0.1,0,0.1c0.1,1.4-0.1,1.6-1.5,1.6
									c-0.1,0-0.2-0.1-0.3-0.3c0-0.1,0-0.2,0-0.3c0-0.7-0.2-0.9-0.9-0.6c-0.1,0-0.2,0.2-0.2,0.3c0,0.5,0,1,0,1.4
									c0,0.1,0.2,0.3,0.4,0.3c0.3,0,0.7-0.1,1-0.1c0.8,0,1.4,0.4,1.5,1.2c0.1,0.8,0.1,1.7,0,2.5c-0.1,0.8-0.6,1.3-1.3,1.4
									c-0.6,0.1-1.3,0.2-1.9,0.3c-0.8,0.1-1.3-0.3-1.4-1c0-0.4,0-0.8,0-1.2c0-0.1,0.2-0.2,0.3-0.3c0,0,0.1,0,0.1,0
									c0.4-0.1,1-0.3,1.2-0.2C41.6,47.7,41.6,48.3,41.6,48.8z"/>
							</g>
							<g>
								<path fill-rule="evenodd" clip-rule="evenodd" fill="#999999" d="M39,49.2c0,0.1,0.1,0.1,0.1,0.1c0.1,1.4,0.1,1.4-1.3,1.6
									c-0.8,0.1-1.7,0.3-2.5,0.4c-0.3,0.1-0.4,0-0.4-0.3c0-2.7,0-5.4,0-8c0-0.3,0.1-0.4,0.4-0.5c1.2-0.2,2.3-0.4,3.5-0.6
									c0.3,0,0.4,0,0.4,0.3c-0.1,1.3,0.1,1.1-1.1,1.3c-1.4,0.2-1.4,0.2-1.3,1.6c0,0.7,0,0.7,0.7,0.6c0.1,0,0.2,0,0.3-0.1
									c0.3-0.1,0.5,0,0.4,0.4c0,0,0,0.1,0,0.1c0,1.1,0,0.9-1,1.1c-0.4,0.1-0.5,0.2-0.5,0.6c0,0.4,0,0.9,0,1.3
									c0,0.4,0.1,0.5,0.5,0.4C37.7,49.3,38.3,49.3,39,49.2z"/>
							</g>
							<g>
								<path fill-rule="evenodd" clip-rule="evenodd" fill="#999999" d="M33.1,46.4c0,0.2,0,0.4,0,0.5c0,1,0,1-1,1.2
									c-0.4,0.1-0.5,0.2-0.5,0.6c0,0.9,0,1.9,0,2.8c0,0.3-0.1,0.5-0.4,0.5c-1.4,0.3-1.4,0.3-1.4-1.1c0-2.3,0-4.6,0-7
									c0-0.5,0.2-0.6,0.6-0.7c1-0.1,2.1-0.3,3.1-0.5c0.4-0.1,0.5,0,0.5,0.4c-0.1,1.2,0.1,1-1.1,1.2c-1.3,0.2-1.3,0.2-1.3,1.5
									c0,0.9-0.1,0.8,0.8,0.7C32.6,46.5,32.8,46.4,33.1,46.4z"/>
							</g>
							<g>
								<path fill-rule="evenodd" clip-rule="evenodd" fill="#999999" d="M46.4,46c0-1.1,0-2.1,0-3.2c0-0.3-0.1-0.5-0.5-0.4
									c-0.9,0.1-0.9,0.1-0.9-0.8c0-0.5,0.1-0.7,0.6-0.7c1.1-0.1,2.3-0.2,3.4-0.3c0.3,0,0.5,0.1,0.4,0.4c0,0.1,0,0.2,0,0.2
									c0,0.8,0,0.8-0.9,0.9c-0.4,0-0.5,0.2-0.5,0.6c0,2.1,0,4.2,0,6.3c0,0.4-0.1,0.6-0.5,0.6c-1.3,0.1-1.3,0.1-1.3-1.2
									C46.4,47.6,46.4,46.8,46.4,46z"/>
							</g>
							<g>
								<path fill-rule="evenodd" clip-rule="evenodd" fill="#999999" d="M28.5,48c0,1.3,0,2.6,0,3.9c0,0.4-0.1,0.6-0.5,0.6
									c-1.3,0.2-1.3,0.2-1.3-1.1c0-2.3,0-4.6,0-7c0-0.5,0.1-0.7,0.6-0.7c1.2-0.2,1.2-0.2,1.2,1C28.5,45.8,28.5,46.9,28.5,48z"/>
							</g>
						</g>
						<g>
							<g>
								<path fill="#999999" d="M55.1,53.1c-15.9,0.1-31.8,5.4-47.7,5.5c-0.2,0-0.4-0.1-0.4-0.3C7,58.1,7.2,58,7.4,58
									c15.9-0.1,31.8-5.4,47.7-5.5c0.2,0,0.4,0.1,0.4,0.3C55.5,53,55.3,53.1,55.1,53.1z"/>
							</g>
							<g>
								<path fill="#999999" d="M55.1,51.7c-15.9,0.1-31.8,5.4-47.7,5.5c-0.1,0-0.2-0.1-0.2-0.2c0-0.1,0.1-0.2,0.2-0.2
									c15.9-0.1,31.8-5.4,47.7-5.5c0.1,0,0.2,0.1,0.2,0.2C55.3,51.7,55.2,51.7,55.1,51.7z"/>
							</g>
						</g>
						<g>
							<g>
								<path fill="#999999" d="M55.1,7.7c-15.9,0.1-31.8,5.4-47.7,5.5c-0.2,0-0.4-0.1-0.4-0.3c0-0.2,0.2-0.3,0.4-0.3
									c15.9-0.1,31.8-5.4,47.7-5.5c0.2,0,0.4,0.1,0.4,0.3C55.5,7.6,55.3,7.7,55.1,7.7z"/>
							</g>
							<g>
								<path fill="#999999" d="M55.1,8.8c-15.9,0.1-31.8,5.4-47.7,5.5c-0.1,0-0.2-0.1-0.2-0.2C7.2,14,7.3,14,7.4,14
									c15.9-0.1,31.8-5.4,47.7-5.5c0.1,0,0.2,0.1,0.2,0.2C55.3,8.7,55.2,8.8,55.1,8.8z"/>
							</g>
						</g>
						<g>
							<g>
								<path fill="#999999" d="M9.4,24.6c-1.5,0-2.4-1-2.4-2.7c0-0.8,0-1.6,0-2.3c0-1.7,0.8-2.5,2.2-2.5c0.8,0,1.6-0.1,2.4-0.1
									c1.4-0.1,2.2,0.6,2.2,2.3c0,0.4,0,0.9,0,1.3c0,0.2-0.1,0.3-0.3,0.3c-0.7,0.1-1.3,0.2-2,0.3c-0.2,0-0.3-0.1-0.3-0.3
									c0-0.5,0-1,0-1.5c0-0.1-0.1-0.2-0.2-0.2c-0.4,0-0.8,0-1.2,0.1c-0.2,0-0.3,0.1-0.3,0.3c0,0.8,0,1.6,0,2.4
									c0,0.3,0.1,0.5,0.5,0.5c0.5,0,1,0,1.4,0c1.5-0.1,2.4,0.9,2.4,2.6c0,0.8,0,1.5,0,2.3c0,1.7-0.8,2.6-2.2,2.6
									c-0.8,0-1.6,0.1-2.4,0.1C7.9,30,7,29.2,7,27.5c0-0.4,0-0.9,0-1.3c0-0.2,0.1-0.3,0.3-0.3c0.7,0,1.3-0.1,2-0.1
									c0.2,0,0.3,0.1,0.3,0.3c0,0.5,0,1,0,1.5c0,0.1,0.1,0.2,0.2,0.2c0.4,0,0.8,0,1.2-0.1c0.1,0,0.3-0.1,0.3-0.2
									c0-0.8,0-1.6,0-2.4c0-0.3-0.1-0.4-0.5-0.4C10.4,24.6,9.9,24.6,9.4,24.6z"/>
							</g>
							<g>
								<path fill="#999999" d="M18.3,18.5c-0.1,0-0.2,0.1-0.2,0.3c0,0.8,0,1.7,0,2.5c0,0.2,0.1,0.3,0.3,0.2
									c0.5-0.1,1.1-0.1,1.6-0.2c0.2,0,0.3,0.1,0.3,0.2c0,0.6-0.1,1.1-0.1,1.7c0,0.1-0.1,0.3-0.3,0.3c-0.5,0.1-1,0.1-1.5,0.2
									c-0.1,0-0.2,0.1-0.2,0.3c0,0.9,0,1.8,0,2.7c0,0.2,0.1,0.3,0.2,0.2c1-0.1,2.1-0.3,3.1-0.4c0.2,0,0.3,0.1,0.3,0.2
									c0,0.6-0.1,1.1-0.1,1.7c0,0.2-0.1,0.3-0.3,0.3c-1.8,0.3-3.7,0.5-5.5,0.7c-0.2,0-0.3-0.1-0.3-0.2c0-4.1,0-8.2,0-12.4
									c0-0.2,0.1-0.3,0.3-0.3c1.9-0.2,3.8-0.4,5.7-0.7c0.2,0,0.3,0.1,0.3,0.2c0,0.6-0.1,1.1-0.1,1.7c0,0.1-0.1,0.3-0.3,0.3
									C20.3,18.3,19.3,18.4,18.3,18.5z"/>
							</g>
							<g>
								<path fill="#999999" d="M25.1,28.3c-1.4,0.2-2.2-0.4-2.2-2.1c0-2.6,0-5.3,0-7.9c0-1.7,0.8-2.6,2.2-2.8
									c0.8-0.1,1.6-0.3,2.3-0.4c1.4-0.2,2.2,0.4,2.2,2.1c0,0.5,0,0.9,0,1.4c0,0.2-0.1,0.3-0.3,0.3c-0.7,0.1-1.3,0.3-2,0.4
									c-0.2,0-0.3-0.1-0.3-0.2c0-0.5,0-1,0-1.5c0-0.1-0.1-0.2-0.3-0.2c-0.4,0.1-0.7,0.1-1.1,0.2c-0.1,0-0.2,0.1-0.2,0.3
									c0,2.7,0,5.3,0,8c0,0.2,0.1,0.3,0.3,0.2c0.3-0.1,0.7-0.1,1-0.2c0.1,0,0.3-0.2,0.3-0.3c0-0.5,0-0.9,0-1.4
									c0-0.2,0.1-0.3,0.3-0.3c0.7-0.1,1.3-0.3,2-0.4c0.2,0,0.3,0.1,0.3,0.2c0,0.5,0,0.9,0,1.4c0,1.7-0.9,2.6-2.2,2.9
									C26.7,28,25.9,28.1,25.1,28.3z"/>
							</g>
							<g>
								<path fill="#999999" d="M33.5,26.9c-1.4,0.2-2.2-0.4-2.2-2.1c0-3.4,0-6.8,0-10.2c0-0.2,0.1-0.3,0.3-0.3
									c0.7-0.1,1.4-0.2,2-0.3c0.2,0,0.3,0,0.3,0.2c0,3.4,0,6.8,0,10.2c0,0.1,0.1,0.2,0.3,0.2c0.4-0.1,0.8-0.1,1.2-0.2
									c0.1,0,0.2-0.1,0.2-0.3c0-3.4,0-6.8,0-10.2c0-0.2,0.1-0.3,0.3-0.3c0.7-0.1,1.3-0.2,2-0.3c0.2,0,0.3,0,0.3,0.2
									c0,3.4,0,6.8,0,10.2c0,1.7-0.8,2.6-2.2,2.8C35.1,26.6,34.3,26.7,33.5,26.9z"/>
							</g>
							<g>
								<path fill="#999999" d="M42.9,23c-0.2,0-0.3,0.1-0.3,0.3c0,0.6,0,1.2,0,1.9c0,0.2-0.1,0.3-0.3,0.3c-0.7,0.1-1.4,0.2-2,0.3
									c-0.1,0-0.3-0.1-0.3-0.2c0-4.1,0-8.2,0-12.4c0-0.2,0.1-0.3,0.3-0.3c1.4-0.2,2.8-0.4,4.3-0.6c1.4-0.2,2.2,0.5,2.2,2.2
									c0,1.9,0,3.7,0,5.6c0,1-0.3,1.7-0.8,2c-0.1,0.1-0.1,0.2-0.1,0.4c0.3,0.7,0.6,1.4,0.9,2.2c0.1,0.2,0,0.3-0.2,0.3
									c-0.7,0.1-1.4,0.1-2,0.2c-0.1,0-0.3,0-0.4-0.2c-0.3-0.6-0.5-1.3-0.8-1.9c0-0.1-0.1-0.1-0.2-0.1C43.1,23,43,23,42.9,23z
									 M44.2,14.8c0-0.2-0.1-0.3-0.3-0.2c-0.3,0-0.7,0.1-1,0.1c-0.1,0-0.2,0.1-0.2,0.3c0,1.9,0,3.7,0,5.6c0,0.2,0.1,0.3,0.3,0.2
									c0.3,0,0.7-0.1,1-0.1c0.1,0,0.2-0.1,0.2-0.3C44.2,18.5,44.2,16.7,44.2,14.8z"/>
							</g>
							<g>
								<path fill="#999999" d="M51.3,13.9c-0.1,0-0.2,0.1-0.2,0.3c0,0.8,0,1.7,0,2.5c0,0.2,0.1,0.3,0.3,0.3c0.5,0,1.1-0.1,1.6-0.1
									c0.2,0,0.3,0.1,0.3,0.3c0,0.6-0.1,1.1-0.1,1.7c0,0.1-0.1,0.3-0.3,0.3c-0.5,0-1,0-1.5,0.1c-0.1,0-0.2,0.1-0.2,0.3
									c0,0.9,0,1.8,0,2.7c0,0.2,0.1,0.3,0.2,0.3c1-0.1,2.1-0.1,3.1-0.1c0.2,0,0.3,0.1,0.3,0.3c0,0.6-0.1,1.1-0.1,1.7
									c0,0.1-0.1,0.3-0.3,0.3c-1.8,0-3.7,0.1-5.5,0.3c-0.2,0-0.3-0.1-0.3-0.3c0-4.1,0-8.2,0-12.4c0-0.2,0.1-0.3,0.3-0.3
									c1.9-0.2,3.8-0.3,5.7-0.3c0.2,0,0.3,0.1,0.3,0.3c0,0.6-0.1,1.1-0.1,1.7c0,0.1-0.1,0.3-0.3,0.3
									C53.3,13.8,52.3,13.8,51.3,13.9z"/>
							</g>
						</g>
						<g>
							<g>
								<path fill="#999999" d="M9.6,39.1c-1.5,0-2.4-1-2.4-2.7c0-0.8,0-1.5,0-2.3c0-1.7,0.8-2.5,2.2-2.5c0.8,0,1.6-0.1,2.4-0.1
									c1.4-0.1,2.2,0.6,2.2,2.3c0,0.4,0,0.8,0,1.3c0,0.2-0.1,0.3-0.3,0.3c-0.7,0.1-1.3,0.2-2,0.3c-0.2,0-0.3-0.1-0.3-0.3
									c0-0.5,0-1,0-1.4c0-0.1-0.1-0.2-0.2-0.2c-0.4,0-0.8,0-1.2,0.1c-0.2,0-0.3,0.1-0.3,0.2c0,0.8,0,1.6,0,2.4
									c0,0.3,0.1,0.5,0.5,0.5c0.5,0,0.9,0,1.4,0c1.5-0.1,2.4,0.8,2.4,2.5c0,0.8,0,1.5,0,2.3c0,1.7-0.8,2.5-2.2,2.6
									c-0.8,0-1.6,0.1-2.4,0.1c-1.4,0-2.2-0.7-2.2-2.4c0-0.4,0-0.8,0-1.3c0-0.2,0.1-0.3,0.3-0.3c0.7,0,1.3-0.1,2-0.2
									c0.2,0,0.3,0.1,0.3,0.3c0,0.5,0,1,0,1.4c0,0.1,0.1,0.2,0.2,0.2c0.4,0,0.8,0,1.2-0.1c0.1,0,0.3-0.1,0.3-0.2
									c0-0.8,0-1.6,0-2.3c0-0.3-0.1-0.4-0.5-0.4C10.6,39.1,10.1,39.1,9.6,39.1z"/>
							</g>
							<g>
								<path fill="#999999" d="M18.4,33.1c-0.1,0-0.2,0.1-0.2,0.3c0,0.8,0,1.7,0,2.5c0,0.2,0.1,0.3,0.3,0.2
									c0.5-0.1,1.1-0.1,1.6-0.2c0.2,0,0.3,0.1,0.3,0.2c0,0.6-0.1,1.1-0.1,1.7c0,0.1-0.1,0.3-0.3,0.3c-0.5,0.1-1,0.1-1.5,0.2
									c-0.1,0-0.2,0.1-0.2,0.3c0,0.9,0,1.8,0,2.7c0,0.2,0.1,0.3,0.2,0.2c1-0.1,2-0.3,3.1-0.4c0.2,0,0.3,0.1,0.3,0.2
									c0,0.6-0.1,1.1-0.1,1.7c0,0.1-0.1,0.3-0.3,0.3c-1.8,0.3-3.6,0.5-5.4,0.7c-0.2,0-0.3-0.1-0.3-0.2c0-4.1,0-8.1,0-12.2
									c0-0.2,0.1-0.3,0.3-0.3c1.9-0.2,3.7-0.4,5.6-0.7c0.2,0,0.3,0.1,0.3,0.2c0,0.6-0.1,1.1-0.1,1.7c0,0.1-0.1,0.3-0.3,0.3
									C20.3,32.8,19.4,33,18.4,33.1z"/>
							</g>
							<g>
								<path fill="#999999" d="M23.2,43c-0.2,0-0.3-0.1-0.3-0.2c0-3.3,0-6.7,0-10c0-1.7,0.8-2.6,2.2-2.8c0.8-0.1,1.5-0.2,2.3-0.4
									c1.3-0.2,2.2,0.4,2.2,2.1c0,3.3,0,6.7,0,10c0,0.2-0.1,0.3-0.3,0.3c-0.7,0.1-1.3,0.2-2,0.3c-0.2,0-0.3-0.1-0.3-0.2
									c0-0.7,0-1.4,0-2.1c0-0.2-0.1-0.3-0.3-0.2c-0.3,0.1-0.7,0.1-1,0.2c-0.1,0-0.2,0.1-0.2,0.3c0,0.7,0,1.4,0,2.1
									c0,0.2-0.1,0.3-0.3,0.3C24.6,42.8,23.9,42.9,23.2,43z M27.1,37.3c0-1.7,0-3.5,0-5.2c0-0.1-0.1-0.2-0.3-0.2
									c-0.4,0.1-0.7,0.1-1.1,0.2c-0.1,0-0.2,0.1-0.2,0.3c0,1.7,0,3.5,0,5.2c0,0.2,0.1,0.3,0.3,0.2c0.3-0.1,0.7-0.1,1-0.2
									C27,37.5,27.1,37.4,27.1,37.3z"/>
							</g>
							<g>
								<path fill="#999999" d="M34.3,38.8c-0.2,0-0.3,0.1-0.3,0.3c0,0.6,0,1.2,0,1.8c0,0.2-0.1,0.3-0.3,0.3c-0.7,0.1-1.3,0.2-2,0.3
									c-0.1,0-0.3-0.1-0.3-0.2c0-4.1,0-8.1,0-12.2c0-0.2,0.1-0.3,0.3-0.3c1.4-0.2,2.8-0.5,4.2-0.7c1.3-0.2,2.2,0.4,2.2,2.1
									c0,1.8,0,3.7,0,5.5c0,1-0.3,1.6-0.8,2c-0.1,0.1-0.1,0.2-0.1,0.4c0.3,0.7,0.6,1.4,0.9,2.1c0.1,0.2,0,0.3-0.2,0.3
									c-0.7,0.1-1.3,0.2-2,0.3c-0.1,0-0.3,0-0.3-0.2c-0.3-0.6-0.5-1.2-0.8-1.8c0-0.1-0.1-0.1-0.2-0.1
									C34.5,38.8,34.4,38.8,34.3,38.8z M35.6,30.6c0-0.2-0.1-0.3-0.3-0.2c-0.3,0.1-0.7,0.1-1,0.2c-0.1,0-0.2,0.1-0.2,0.3
									c0,1.8,0,3.7,0,5.5c0,0.2,0.1,0.3,0.3,0.2c0.3-0.1,0.7-0.1,1-0.2c0.1,0,0.2-0.1,0.2-0.3C35.6,34.3,35.6,32.5,35.6,30.6z"/>
							</g>
							<g>
								<path fill="#999999" d="M41.9,40c-1.3,0.2-2.2-0.4-2.2-2.1c0-2.6,0-5.2,0-7.8c0-1.7,0.8-2.6,2.2-2.8
									c0.8-0.1,1.5-0.2,2.3-0.3c1.3-0.2,2.2,0.5,2.2,2.2c0,0.4,0,0.9,0,1.3c0,0.2-0.1,0.3-0.3,0.3c-0.7,0.1-1.3,0.2-2,0.3
									c-0.2,0-0.3-0.1-0.3-0.2c0-0.5,0-1,0-1.5c0-0.1-0.1-0.2-0.3-0.2c-0.3,0-0.7,0.1-1,0.1c-0.1,0-0.2,0.1-0.2,0.3
									c0,2.6,0,5.2,0,7.9c0,0.2,0.1,0.3,0.3,0.2c0.3,0,0.7-0.1,1-0.1c0.1,0,0.3-0.1,0.3-0.3c0-0.4,0-0.9,0-1.3
									c0-0.2,0.1-0.3,0.3-0.3c0.7-0.1,1.3-0.2,2-0.3c0.2,0,0.3,0.1,0.3,0.2c0,0.5,0,0.9,0,1.4c0,1.7-0.9,2.5-2.2,2.7
									C43.4,39.8,42.6,39.9,41.9,40z"/>
							</g>
							<g>
								<path fill="#999999" d="M50.8,33.6c-0.2,0-0.3,0.1-0.3,0.3c0,1.6,0,3.2,0,4.9c0,0.2-0.1,0.3-0.3,0.3c-0.7,0-1.3,0.1-2,0.2
									c-0.1,0-0.3-0.1-0.3-0.2c0-4.1,0-8.1,0-12.2c0-0.2,0.1-0.3,0.3-0.3c0.7-0.1,1.3-0.1,2-0.2c0.2,0,0.3,0.1,0.3,0.3
									c0,1.5,0,3.1,0,4.6c0,0.2,0.1,0.3,0.3,0.3c0.4,0,0.8,0,1.3-0.1c0.1,0,0.3-0.1,0.3-0.3c0-1.5,0-3.1,0-4.6
									c0-0.2,0.1-0.3,0.3-0.3c0.7,0,1.4,0,2-0.1c0.2,0,0.3,0.1,0.3,0.3c0,4.1,0,8.1,0,12.2c0,0.2-0.1,0.3-0.3,0.3
									c-0.7,0-1.4,0-2,0.1c-0.1,0-0.3-0.1-0.3-0.3c0-1.6,0-3.2,0-4.8c0-0.2-0.1-0.3-0.3-0.3C51.7,33.6,51.2,33.6,50.8,33.6z"/>
							</g>
						</g>
					</g>
				</g>
			</g>
			<g>
				<g>
					<g>
						<g id="XMrHip_2_">
							<g>
								<path fill-rule="evenodd" clip-rule="evenodd" fill="#881719" d="M11.5,50.5c-0.2,0.5-0.3,0.9-0.6,1.3
									c-0.1,0.2-0.3,0.3-0.4,0.4c-0.3,0.1-0.5,0-0.6-0.3c-0.2-0.4-0.4-0.9-0.5-1.3c-0.1,0-0.1,0-0.2,0c0,0.2,0,0.3,0,0.5
									c0,0.9,0,1.8,0,2.7c0,0.3-0.1,0.5-0.5,0.5c-0.3,0-0.6,0-0.9,0c-0.3,0-0.4-0.1-0.4-0.4c0-2.7,0-5.4,0-8.1
									c0-0.3,0.1-0.4,0.4-0.4c1.3-0.1,1.3-0.1,1.7,1.2c0.2,0.8,0.5,1.6,0.7,2.4c0,0.1,0.1,0.3,0.3,0.4c0.1-0.1,0.1-0.3,0.2-0.4
									c0.3-1.1,0.6-2.1,0.9-3.2c0.1-0.4,0.3-0.5,0.6-0.5c1.3-0.1,1.3-0.1,1.3,1.2c0,2.3,0,4.6,0,7c0,0.7,0,0.7-0.6,0.7
									c-1.1,0.1-1.1,0.1-1.1-1.1c0-0.7,0-1.4,0-2c0-0.2,0-0.3,0-0.5C11.6,50.6,11.6,50.5,11.5,50.5z"/>
							</g>
							<g>
								<path fill-rule="evenodd" clip-rule="evenodd" fill="#881719" d="M22.4,49.3c0,0.9,0,1.8,0,2.7c0,1.1,0,1.1-1.1,1.2
									c-0.7,0.1-0.7,0.1-0.7-0.6c0-2.5,0-5.1,0-7.6c0-0.4,0.1-0.6,0.5-0.6c1-0.1,0.8-0.2,1.1,0.6c0.4,0.8,0.7,1.7,1.1,2.5
									c0.1,0.1,0.2,0.3,0.2,0.4c0,0,0.1,0,0.1,0c0-0.2,0-0.3,0-0.5c0-0.9,0-1.9,0-2.8c0-0.4,0.1-0.5,0.5-0.6
									c1.3-0.2,1.3-0.2,1.3,1.1c0,2.4,0,4.7,0,7.1c0,0.4-0.1,0.6-0.6,0.6c-0.9,0.1-0.7,0.2-1.1-0.6c-0.4-0.8-0.7-1.7-1.1-2.5
									c-0.1-0.1-0.2-0.3-0.2-0.4C22.5,49.2,22.5,49.2,22.4,49.3z"/>
							</g>
							<g>
								<path fill-rule="evenodd" clip-rule="evenodd" fill="#881719" d="M19.4,49.6c0,1.1,0,2.2,0,3.4c0,0.4-0.1,0.5-0.5,0.6
									c-1.3,0.2-1.3,0.2-1.3-1.1c0-0.4-0.1-0.6-0.5-0.5c-0.4,0.1-0.6,0.2-0.6,0.6c0,1.3,0,1.3-1.3,1.4c-0.3,0-0.5-0.1-0.5-0.4
									c0-2.3,0-4.5,0-6.8c0-1.2,0.5-1.7,1.7-1.8c0.5-0.1,0.9-0.1,1.4-0.2c1-0.1,1.5,0.3,1.5,1.3C19.4,47.3,19.4,48.4,19.4,49.6
									C19.4,49.6,19.4,49.6,19.4,49.6z M17.6,48.4c0-0.5,0-1.1,0-1.6c0-0.4-0.2-0.4-0.5-0.3c-0.3,0.1-0.6-0.1-0.6,0.4
									c0,1.1,0,2.2,0,3.3c0,0.5,0.4,0.3,0.6,0.3c0.3,0,0.5-0.1,0.5-0.4C17.6,49.4,17.6,48.9,17.6,48.4z"/>
							</g>
							<g>
								<path fill-rule="evenodd" clip-rule="evenodd" fill="#881719" d="M50.3,44.6c0-0.9,0-1.8,0-2.7c0-1.2,0.5-1.8,1.8-1.8
									c0.5,0,0.9,0,1.4,0c1.1,0,1.6,0.5,1.6,1.6c0,1.2,0,2.3,0,3.5c0,0.7,0,1.4,0,2.1c0,1.2-0.5,1.6-1.7,1.7c-0.5,0-1,0-1.4,0.1
									c-1.1,0-1.6-0.4-1.6-1.5c0,0,0-0.1,0-0.1C50.3,46.4,50.3,45.5,50.3,44.6z M53.3,41.5c-0.3,0-0.4,0-0.6,0
									c-0.5,0-0.6,0.1-0.6,0.6c0,1.6,0,3.1,0,4.7c0,0.5,0.2,0.6,0.6,0.5c0.4,0,0.7,0,0.6-0.6c0-1.2,0-2.3,0-3.5
									C53.3,42.8,53.3,42.2,53.3,41.5z"/>
							</g>
							<g>
								<path fill-rule="evenodd" clip-rule="evenodd" fill="#881719" d="M41.6,48.4c0.3,0,0.6,0,0.8-0.1c0.1,0,0.3-0.2,0.3-0.4
									c0-0.5,0-0.9,0-1.4c0-0.1-0.2-0.3-0.4-0.3c-0.3,0-0.6,0.1-0.9,0.1c-0.9,0.1-1.6-0.4-1.6-1.3c0-0.8,0-1.5,0-2.3
									c0-0.8,0.5-1.4,1.3-1.5c0.7-0.1,1.4-0.2,2-0.3c0.8-0.1,1.2,0.3,1.3,1.1c0,0,0,0.1,0,0.1c0.1,1.4-0.1,1.6-1.5,1.6
									c-0.1,0-0.2-0.1-0.3-0.3c0-0.1,0-0.2,0-0.3c0-0.7-0.2-0.9-0.9-0.6c-0.1,0-0.2,0.2-0.2,0.3c0,0.5,0,1,0,1.4
									c0,0.1,0.2,0.3,0.4,0.3c0.3,0,0.7-0.1,1-0.1c0.8,0,1.4,0.4,1.5,1.2c0.1,0.8,0.1,1.7,0,2.5c-0.1,0.8-0.6,1.3-1.3,1.4
									c-0.6,0.1-1.3,0.2-1.9,0.3c-0.8,0.1-1.3-0.3-1.4-1c0-0.4,0-0.8,0-1.2c0-0.1,0.2-0.2,0.3-0.3c0,0,0.1,0,0.1,0
									c0.4-0.1,1-0.3,1.2-0.2C41.6,47.3,41.6,47.9,41.6,48.4z"/>
							</g>
							<g>
								<path fill-rule="evenodd" clip-rule="evenodd" fill="#881719" d="M39,48.8c0,0.1,0.1,0.1,0.1,0.1c0.1,1.4,0.1,1.4-1.3,1.6
									c-0.8,0.1-1.7,0.3-2.5,0.4c-0.3,0.1-0.4,0-0.4-0.3c0-2.7,0-5.4,0-8c0-0.3,0.1-0.4,0.4-0.5c1.2-0.2,2.3-0.4,3.5-0.6
									c0.3,0,0.4,0,0.4,0.3c-0.1,1.3,0.1,1.1-1.1,1.3c-1.4,0.2-1.4,0.2-1.3,1.6c0,0.7,0,0.7,0.7,0.6c0.1,0,0.2,0,0.3-0.1
									c0.3-0.1,0.5,0,0.4,0.4c0,0,0,0.1,0,0.1c0,1.1,0,0.9-1,1.1c-0.4,0.1-0.5,0.2-0.5,0.6c0,0.4,0,0.9,0,1.3
									c0,0.4,0.1,0.5,0.5,0.4C37.7,49,38.3,48.9,39,48.8z"/>
							</g>
							<g>
								<path fill-rule="evenodd" clip-rule="evenodd" fill="#881719" d="M33.1,46c0,0.2,0,0.4,0,0.5c0,1,0,1-1,1.2
									c-0.4,0.1-0.5,0.2-0.5,0.6c0,0.9,0,1.9,0,2.8c0,0.3-0.1,0.5-0.4,0.5c-1.4,0.3-1.4,0.3-1.4-1.1c0-2.3,0-4.6,0-7
									c0-0.5,0.2-0.6,0.6-0.7c1-0.1,2.1-0.3,3.1-0.5c0.4-0.1,0.5,0,0.5,0.4c-0.1,1.2,0.1,1-1.1,1.2c-1.3,0.2-1.3,0.2-1.3,1.5
									c0,0.9-0.1,0.8,0.8,0.7C32.6,46.1,32.8,46.1,33.1,46z"/>
							</g>
							<g>
								<path fill-rule="evenodd" clip-rule="evenodd" fill="#881719" d="M46.4,45.7c0-1.1,0-2.1,0-3.2c0-0.3-0.1-0.5-0.5-0.4
									c-0.9,0.1-0.9,0.1-0.9-0.8c0-0.5,0.1-0.7,0.6-0.7c1.1-0.1,2.3-0.2,3.4-0.3c0.3,0,0.5,0.1,0.4,0.4c0,0.1,0,0.2,0,0.2
									c0,0.8,0,0.8-0.9,0.9c-0.4,0-0.5,0.2-0.5,0.6c0,2.1,0,4.2,0,6.3c0,0.4-0.1,0.6-0.5,0.6c-1.3,0.1-1.3,0.1-1.3-1.2
									C46.4,47.3,46.4,46.5,46.4,45.7z"/>
							</g>
							<g>
								<path fill-rule="evenodd" clip-rule="evenodd" fill="#881719" d="M28.5,47.6c0,1.3,0,2.6,0,3.9c0,0.4-0.1,0.6-0.5,0.6
									c-1.3,0.2-1.3,0.2-1.3-1.1c0-2.3,0-4.6,0-7c0-0.5,0.1-0.7,0.6-0.7c1.2-0.2,1.2-0.2,1.2,1C28.5,45.5,28.5,46.5,28.5,47.6z"/>
							</g>
						</g>
						<g>
							<g>
								<path fill="#010101" d="M55.1,52.8c-15.9,0.1-31.8,5.4-47.7,5.5C7.2,58.3,7,58.2,7,58c0-0.2,0.2-0.3,0.4-0.3
									c15.9-0.1,31.8-5.4,47.7-5.5c0.2,0,0.4,0.1,0.4,0.3C55.5,52.7,55.3,52.8,55.1,52.8z"/>
							</g>
							<g>
								<path fill="#010101" d="M55.1,51.4c-15.9,0.1-31.8,5.4-47.7,5.5c-0.1,0-0.2-0.1-0.2-0.2c0-0.1,0.1-0.2,0.2-0.2
									c15.9-0.1,31.8-5.4,47.7-5.5c0.1,0,0.2,0.1,0.2,0.2C55.3,51.3,55.2,51.4,55.1,51.4z"/>
							</g>
						</g>
						<g>
							<g>
								<path fill="#010101" d="M55.1,7.4c-15.9,0.1-31.8,5.4-47.7,5.5c-0.2,0-0.4-0.1-0.4-0.3c0-0.2,0.2-0.3,0.4-0.3
									c15.9-0.1,31.8-5.4,47.7-5.5c0.2,0,0.4,0.1,0.4,0.3C55.5,7.3,55.3,7.4,55.1,7.4z"/>
							</g>
							<g>
								<path fill="#010101" d="M55.1,8.4C39.2,8.5,23.3,13.9,7.4,14c-0.1,0-0.2-0.1-0.2-0.2c0-0.1,0.1-0.2,0.2-0.2
									c15.9-0.1,31.8-5.4,47.7-5.5c0.1,0,0.2,0.1,0.2,0.2C55.3,8.4,55.2,8.4,55.1,8.4z"/>
							</g>
						</g>
						<g>
							<g>
								<path fill="#099DD9" d="M9.4,24.3c-1.5,0-2.4-1-2.4-2.7c0-0.8,0-1.6,0-2.3c0-1.7,0.8-2.5,2.2-2.5c0.8,0,1.6-0.1,2.4-0.1
									c1.4-0.1,2.2,0.6,2.2,2.3c0,0.4,0,0.9,0,1.3c0,0.2-0.1,0.3-0.3,0.3c-0.7,0.1-1.3,0.2-2,0.3c-0.2,0-0.3-0.1-0.3-0.3
									c0-0.5,0-1,0-1.5c0-0.1-0.1-0.2-0.2-0.2c-0.4,0-0.8,0-1.2,0.1c-0.2,0-0.3,0.1-0.3,0.2c0,0.8,0,1.6,0,2.4
									c0,0.3,0.1,0.5,0.5,0.5c0.5,0,1,0,1.4,0c1.5-0.1,2.4,0.9,2.4,2.6c0,0.8,0,1.5,0,2.3c0,1.7-0.8,2.6-2.2,2.6
									c-0.8,0-1.6,0.1-2.4,0.1c-1.4,0-2.2-0.7-2.2-2.5c0-0.4,0-0.9,0-1.3c0-0.2,0.1-0.3,0.3-0.3c0.7,0,1.3-0.1,2-0.1
									c0.2,0,0.3,0.1,0.3,0.3c0,0.5,0,1,0,1.5c0,0.1,0.1,0.2,0.2,0.2c0.4,0,0.8,0,1.2-0.1c0.1,0,0.3-0.1,0.3-0.2
									c0-0.8,0-1.6,0-2.4c0-0.3-0.1-0.4-0.5-0.4C10.4,24.3,9.9,24.3,9.4,24.3z"/>
							</g>
							<g>
								<path fill="#099DD9" d="M18.3,18.2c-0.1,0-0.2,0.1-0.2,0.3c0,0.8,0,1.7,0,2.5c0,0.2,0.1,0.3,0.3,0.2
									c0.5-0.1,1.1-0.1,1.6-0.2c0.2,0,0.3,0.1,0.3,0.2c0,0.6-0.1,1.1-0.1,1.7c0,0.2-0.1,0.3-0.3,0.3c-0.5,0.1-1,0.1-1.5,0.2
									c-0.1,0-0.2,0.1-0.2,0.3c0,0.9,0,1.8,0,2.7c0,0.2,0.1,0.3,0.2,0.2c1-0.1,2.1-0.3,3.1-0.4c0.2,0,0.3,0.1,0.3,0.2
									c0,0.6-0.1,1.1-0.1,1.7c0,0.2-0.1,0.3-0.3,0.3c-1.8,0.3-3.7,0.5-5.5,0.7c-0.2,0-0.3-0.1-0.3-0.2c0-4.1,0-8.2,0-12.4
									c0-0.2,0.1-0.3,0.3-0.3c1.9-0.2,3.8-0.4,5.7-0.7c0.2,0,0.3,0.1,0.3,0.2c0,0.6-0.1,1.1-0.1,1.7c0,0.1-0.1,0.3-0.3,0.3
									C20.3,17.9,19.3,18.1,18.3,18.2z"/>
							</g>
							<g>
								<path fill="#099DD9" d="M25.1,27.9c-1.4,0.2-2.2-0.4-2.2-2.1c0-2.6,0-5.3,0-7.9c0-1.7,0.8-2.6,2.2-2.8
									c0.8-0.1,1.6-0.3,2.3-0.4c1.4-0.2,2.2,0.4,2.2,2.1c0,0.5,0,0.9,0,1.4c0,0.2-0.1,0.3-0.3,0.3c-0.7,0.1-1.3,0.3-2,0.4
									c-0.2,0-0.3-0.1-0.3-0.2c0-0.5,0-1,0-1.5c0-0.1-0.1-0.2-0.3-0.2c-0.4,0.1-0.7,0.1-1.1,0.2c-0.1,0-0.2,0.1-0.2,0.3
									c0,2.7,0,5.3,0,8c0,0.2,0.1,0.3,0.3,0.2c0.3-0.1,0.7-0.1,1-0.2c0.1,0,0.3-0.2,0.3-0.3c0-0.5,0-0.9,0-1.4
									c0-0.2,0.1-0.3,0.3-0.3c0.7-0.1,1.3-0.3,2-0.4c0.2,0,0.3,0.1,0.3,0.2c0,0.5,0,0.9,0,1.4c0,1.7-0.9,2.6-2.2,2.9
									C26.7,27.7,25.9,27.8,25.1,27.9z"/>
							</g>
							<g>
								<path fill="#099DD9" d="M33.5,26.5c-1.4,0.2-2.2-0.4-2.2-2.1c0-3.4,0-6.8,0-10.2c0-0.2,0.1-0.3,0.3-0.3
									c0.7-0.1,1.4-0.2,2-0.3c0.2,0,0.3,0,0.3,0.2c0,3.4,0,6.8,0,10.2c0,0.1,0.1,0.2,0.3,0.2c0.4-0.1,0.8-0.1,1.2-0.2
									c0.1,0,0.2-0.1,0.2-0.3c0-3.4,0-6.8,0-10.2c0-0.2,0.1-0.3,0.3-0.3c0.7-0.1,1.3-0.2,2-0.3c0.2,0,0.3,0,0.3,0.2
									c0,3.4,0,6.8,0,10.2c0,1.7-0.8,2.6-2.2,2.8C35.1,26.2,34.3,26.4,33.5,26.5z"/>
							</g>
							<g>
								<path fill="#099DD9" d="M42.9,22.7c-0.2,0-0.3,0.1-0.3,0.3c0,0.6,0,1.2,0,1.9c0,0.2-0.1,0.3-0.3,0.3c-0.7,0.1-1.4,0.2-2,0.3
									c-0.1,0-0.3-0.1-0.3-0.2c0-4.1,0-8.2,0-12.4c0-0.2,0.1-0.3,0.3-0.3c1.4-0.2,2.8-0.4,4.3-0.6c1.4-0.2,2.2,0.5,2.2,2.2
									c0,1.9,0,3.7,0,5.6c0,1-0.3,1.7-0.8,2c-0.1,0.1-0.1,0.2-0.1,0.4c0.3,0.7,0.6,1.4,0.9,2.2c0.1,0.2,0,0.3-0.2,0.3
									c-0.7,0.1-1.4,0.1-2,0.2c-0.1,0-0.3,0-0.4-0.2c-0.3-0.6-0.5-1.3-0.8-1.9c0-0.1-0.1-0.1-0.2-0.1C43.1,22.6,43,22.7,42.9,22.7
									z M44.2,14.5c0-0.2-0.1-0.3-0.3-0.2c-0.3,0-0.7,0.1-1,0.1c-0.1,0-0.2,0.1-0.2,0.3c0,1.9,0,3.7,0,5.6c0,0.2,0.1,0.3,0.3,0.2
									c0.3,0,0.7-0.1,1-0.1c0.1,0,0.2-0.1,0.2-0.3C44.2,18.2,44.2,16.3,44.2,14.5z"/>
							</g>
							<g>
								<path fill="#099DD9" d="M51.3,13.5c-0.1,0-0.2,0.1-0.2,0.3c0,0.8,0,1.7,0,2.5c0,0.2,0.1,0.3,0.3,0.3c0.5,0,1.1-0.1,1.6-0.1
									c0.2,0,0.3,0.1,0.3,0.3c0,0.6-0.1,1.1-0.1,1.7c0,0.1-0.1,0.3-0.3,0.3c-0.5,0-1,0-1.5,0.1c-0.1,0-0.2,0.1-0.2,0.3
									c0,0.9,0,1.8,0,2.7c0,0.2,0.1,0.3,0.2,0.3c1-0.1,2.1-0.1,3.1-0.1c0.2,0,0.3,0.1,0.3,0.3c0,0.6-0.1,1.1-0.1,1.7
									c0,0.1-0.1,0.3-0.3,0.3c-1.8,0-3.7,0.1-5.5,0.3c-0.2,0-0.3-0.1-0.3-0.3c0-4.1,0-8.2,0-12.4c0-0.2,0.1-0.3,0.3-0.3
									c1.9-0.2,3.8-0.3,5.7-0.3c0.2,0,0.3,0.1,0.3,0.3c0,0.6-0.1,1.1-0.1,1.7c0,0.1-0.1,0.3-0.3,0.3
									C53.3,13.5,52.3,13.5,51.3,13.5z"/>
							</g>
						</g>
						<g>
							<g>
								<path fill="#099DD9" d="M9.6,38.8c-1.5,0-2.4-1-2.4-2.7c0-0.8,0-1.5,0-2.3c0-1.7,0.8-2.5,2.2-2.5c0.8,0,1.6-0.1,2.4-0.1
									c1.4-0.1,2.2,0.6,2.2,2.3c0,0.4,0,0.9,0,1.3c0,0.2-0.1,0.3-0.3,0.3c-0.7,0.1-1.3,0.2-2,0.3c-0.2,0-0.3-0.1-0.3-0.3
									c0-0.5,0-1,0-1.4c0-0.1-0.1-0.2-0.2-0.2c-0.4,0-0.8,0-1.2,0.1c-0.2,0-0.3,0.1-0.3,0.2c0,0.8,0,1.6,0,2.4
									c0,0.3,0.1,0.5,0.5,0.5c0.5,0,0.9,0,1.4,0c1.5-0.1,2.4,0.8,2.4,2.5c0,0.8,0,1.5,0,2.3c0,1.7-0.8,2.5-2.2,2.6
									C11,44,10.2,44,9.4,44c-1.4,0-2.2-0.7-2.2-2.4c0-0.4,0-0.8,0-1.3c0-0.2,0.1-0.3,0.3-0.3c0.7,0,1.3-0.1,2-0.1
									c0.2,0,0.3,0.1,0.3,0.3c0,0.5,0,1,0,1.4c0,0.1,0.1,0.2,0.2,0.2c0.4,0,0.8,0,1.2-0.1c0.1,0,0.3-0.1,0.3-0.2
									c0-0.8,0-1.6,0-2.3c0-0.3-0.1-0.4-0.5-0.4C10.6,38.8,10.1,38.8,9.6,38.8z"/>
							</g>
							<g>
								<path fill="#099DD9" d="M18.4,32.7c-0.1,0-0.2,0.1-0.2,0.3c0,0.8,0,1.7,0,2.5c0,0.2,0.1,0.3,0.3,0.2
									c0.5-0.1,1.1-0.1,1.6-0.2c0.2,0,0.3,0.1,0.3,0.2c0,0.6-0.1,1.1-0.1,1.7c0,0.1-0.1,0.3-0.3,0.3c-0.5,0.1-1,0.1-1.5,0.2
									c-0.1,0-0.2,0.1-0.2,0.3c0,0.9,0,1.8,0,2.7c0,0.2,0.1,0.3,0.2,0.2c1-0.1,2-0.3,3.1-0.4c0.2,0,0.3,0.1,0.3,0.2
									c0,0.6-0.1,1.1-0.1,1.7c0,0.1-0.1,0.3-0.3,0.3c-1.8,0.3-3.6,0.5-5.4,0.7c-0.2,0-0.3-0.1-0.3-0.2c0-4.1,0-8.1,0-12.2
									c0-0.2,0.1-0.3,0.3-0.3c1.9-0.2,3.7-0.4,5.6-0.7c0.2,0,0.3,0.1,0.3,0.2c0,0.6-0.1,1.1-0.1,1.7c0,0.1-0.1,0.3-0.3,0.3
									C20.3,32.5,19.4,32.6,18.4,32.7z"/>
							</g>
							<g>
								<path fill="#099DD9" d="M23.2,42.6c-0.2,0-0.3-0.1-0.3-0.2c0-3.3,0-6.7,0-10c0-1.7,0.8-2.6,2.2-2.8c0.8-0.1,1.5-0.2,2.3-0.4
									c1.3-0.2,2.2,0.4,2.2,2.1c0,3.3,0,6.7,0,10c0,0.2-0.1,0.3-0.3,0.3c-0.7,0.1-1.3,0.2-2,0.3c-0.2,0-0.3-0.1-0.3-0.2
									c0-0.7,0-1.4,0-2.1c0-0.2-0.1-0.3-0.3-0.2c-0.3,0.1-0.7,0.1-1,0.2c-0.1,0-0.2,0.1-0.2,0.3c0,0.7,0,1.4,0,2.1
									c0,0.2-0.1,0.3-0.3,0.3C24.6,42.4,23.9,42.5,23.2,42.6z M27.1,36.9c0-1.7,0-3.5,0-5.2c0-0.1-0.1-0.2-0.3-0.2
									c-0.4,0.1-0.7,0.1-1.1,0.2c-0.1,0-0.2,0.1-0.2,0.3c0,1.7,0,3.5,0,5.2c0,0.2,0.1,0.3,0.3,0.2c0.3-0.1,0.7-0.1,1-0.2
									C27,37.2,27.1,37.1,27.1,36.9z"/>
							</g>
							<g>
								<path fill="#099DD9" d="M34.3,38.4c-0.2,0-0.3,0.1-0.3,0.3c0,0.6,0,1.2,0,1.8c0,0.2-0.1,0.3-0.3,0.3c-0.7,0.1-1.3,0.2-2,0.3
									c-0.1,0-0.3-0.1-0.3-0.2c0-4.1,0-8.1,0-12.2c0-0.2,0.1-0.3,0.3-0.3c1.4-0.2,2.8-0.5,4.2-0.7c1.3-0.2,2.2,0.4,2.2,2.1
									c0,1.8,0,3.7,0,5.5c0,1-0.3,1.6-0.8,2c-0.1,0.1-0.1,0.2-0.1,0.4c0.3,0.7,0.6,1.4,0.9,2.1c0.1,0.2,0,0.3-0.2,0.3
									c-0.7,0.1-1.3,0.2-2,0.3c-0.1,0-0.3,0-0.3-0.2c-0.3-0.6-0.5-1.2-0.8-1.8c0-0.1-0.1-0.1-0.2-0.1
									C34.5,38.4,34.4,38.4,34.3,38.4z M35.6,30.3c0-0.2-0.1-0.3-0.3-0.2c-0.3,0.1-0.7,0.1-1,0.2c-0.1,0-0.2,0.1-0.2,0.3
									c0,1.8,0,3.7,0,5.5c0,0.2,0.1,0.3,0.3,0.2c0.3-0.1,0.7-0.1,1-0.2c0.1,0,0.2-0.1,0.2-0.3C35.6,33.9,35.6,32.1,35.6,30.3z"/>
							</g>
							<g>
								<path fill="#099DD9" d="M41.9,39.6c-1.3,0.2-2.2-0.4-2.2-2.1c0-2.6,0-5.2,0-7.8c0-1.7,0.8-2.6,2.2-2.8
									c0.8-0.1,1.5-0.2,2.3-0.3c1.3-0.2,2.2,0.5,2.2,2.2c0,0.4,0,0.9,0,1.3c0,0.2-0.1,0.3-0.3,0.3c-0.7,0.1-1.3,0.2-2,0.3
									c-0.2,0-0.3-0.1-0.3-0.2c0-0.5,0-1,0-1.5c0-0.1-0.1-0.2-0.3-0.2c-0.3,0-0.7,0.1-1,0.1c-0.1,0-0.2,0.1-0.2,0.3
									c0,2.6,0,5.2,0,7.9c0,0.2,0.1,0.3,0.3,0.2c0.3,0,0.7-0.1,1-0.1c0.1,0,0.3-0.1,0.3-0.3c0-0.4,0-0.9,0-1.3
									c0-0.2,0.1-0.3,0.3-0.3c0.7-0.1,1.3-0.2,2-0.3c0.2,0,0.3,0.1,0.3,0.2c0,0.5,0,0.9,0,1.4c0,1.7-0.9,2.5-2.2,2.7
									C43.4,39.4,42.6,39.5,41.9,39.6z"/>
							</g>
							<g>
								<path fill="#099DD9" d="M50.8,33.3c-0.2,0-0.3,0.1-0.3,0.3c0,1.6,0,3.2,0,4.9c0,0.2-0.1,0.3-0.3,0.3c-0.7,0-1.3,0.1-2,0.2
									c-0.1,0-0.3-0.1-0.3-0.2c0-4.1,0-8.1,0-12.2c0-0.2,0.1-0.3,0.3-0.3c0.7-0.1,1.3-0.1,2-0.2c0.2,0,0.3,0.1,0.3,0.3
									c0,1.5,0,3.1,0,4.6c0,0.2,0.1,0.3,0.3,0.3c0.4,0,0.8,0,1.3-0.1c0.1,0,0.3-0.1,0.3-0.3c0-1.5,0-3.1,0-4.6
									c0-0.2,0.1-0.3,0.3-0.3c0.7,0,1.4,0,2-0.1c0.2,0,0.3,0.1,0.3,0.3c0,4.1,0,8.1,0,12.2c0,0.2-0.1,0.3-0.3,0.3
									c-0.7,0-1.4,0-2,0.1c-0.1,0-0.3-0.1-0.3-0.3c0-1.6,0-3.2,0-4.8c0-0.2-0.1-0.3-0.3-0.3C51.7,33.3,51.2,33.3,50.8,33.3z"/>
							</g>
						</g>
					</g>
				</g>
			</g>
		</g>
	</g>
</g>
</svg>
